# xmcd
#
# Track frame offsets:
#	150
#	22124
#	51719
#	79104
#	102441
#
# Disc length: 1601 seconds
#
# Revision: 1
# Processed by: cddbd v1.5.2PL0 Copyright (c) Steve Scherf et al.
# Submitted via: audiograbber 1.83.01
#
DISCID=41063f05
DTITLE=Tracy Conover - Tracy Conover
DYEAR=1900
DGENRE=Country
TTITLE0=My Big Rocker
TTITLE1=I Want To Be An Angel
TTITLE2=Garden Of Color
TTITLE3=Help Me Thru The Day
TTITLE4=Carelessly
EXTD=
EXTT0=
EXTT1=
EXTT2=
EXTT3=
EXTT4=
PLAYORDER=
